<svg xmlns="http://www.w3.org/2000/svg" width="53" height="112" viewBox="0 0 53 112">
  <g fill="#666" fill-rule="evenodd" transform="translate(-1)">
    <path d="M43.3 66.6L43.3 37.6 50.4 37.6C52.2 37.6 53.7 36.2 53.7 34.3L53.7 34.1C53.7 32.3 52.2 30.8 50.4 30.8L43.3 30.8 43.3 3.3C43.3 1.4 41.7 0 40 0L39.8 0C38 0 36.5 1.4 36.5 3.3L36.5 63.2C38.7 64.3 41 65.5 43.3 66.6zM36.4 65.9L36.4 87.7C36.4 89.5 37.9 91 39.7 91L40 91C41.8 91 43.3 89.5 43.3 87.7L43.3 69.4C41 68.2 38.7 67 36.4 65.9zM28 68.6L28.2 68.6C30 68.6 31.5 67.1 31.5 65.3L31.5 63.4C29.2 62.2 27 61.1 24.7 59.9L24.7 65.3C24.7 67.1 26.2 68.6 28 68.6zM31.5 60.6L31.5 35.2C31.5 33.4 30 31.9 28.2 31.9L28 31.9C26.2 31.9 24.7 33.4 24.7 35.2L24.7 57.2C27 58.3 29.3 59.5 31.5 60.6zM20.6 55.1C20.6 54.2 20.6 53.3 20.6 52.4L20.5 28C20.5 26.1 19 24.7 17.2 24.7L17 24.7C15.2 24.7 13.7 26.1 13.7 28L13.8 51.7C16.1 52.8 18.3 54 20.6 55.1zM8.3 48.9L8.3 36.4C8.3 34.6 6.7 33.1 5 33.1L4.8 33.1C3 33.1 1.5 34.6 1.5 36.4L1.5 45.6C3.8 46.7 6.1 47.8 8.3 48.9zM21 70.9C20.8 70.3 20.4 69.8 19.8 69.4 20.1 65.7 20.4 61.9 20.5 57.8 18.3 56.7 16 55.5 13.8 54.4 13.7 59.7 13.5 64.8 13.1 69.4 12.5 74.6 11.7 79.5 10.5 84.2 8.4 92.4 5.4 99.7 1.4 107.1.5 108.7 1.1 110.6 2.6 111.5L2.7 111.6C3.5 112 4.4 112.2 5.3 112 6.2 111.8 6.8 111.2 7.3 110.4 12.5 101 16 91.6 18 81.5L27 103.7C27.3 104.5 27.9 105.2 28.7 105.4 29.6 105.9 30.5 105.8 31.4 105.4 33 104.8 33.8 102.9 33.1 101.2L21 70.9zM4.8 71.6L5 71.6C6.7 71.6 8.3 70.1 8.3 68.3L8.3 51.6C6 50.5 3.8 49.3 1.5 48.2L1.5 68.2C1.5 70.1 3 71.6 4.8 71.6z"/>
  </g>
</svg>
